<svg width="36" height="36" viewBox="0 0 36 36" fill="none" xmlns="http://www.w3.org/2000/svg">
<rect width="36" height="36" rx="10" fill="white" fill-opacity="0.12"/>
<path d="M13.5583 19.6667H11.3333C10.4167 19.6667 9.66667 20.4167 9.66667 21.3333V25.5C9.66667 25.9583 10.0417 26.3333 10.5 26.3333H13.5583C14.0167 26.3333 14.3917 25.9583 14.3917 25.5V20.5C14.3917 20.0417 14.0167 19.6667 13.5583 19.6667Z" fill="white"/>
<path d="M19.1083 16.3333H16.8833C15.9667 16.3333 15.2167 17.0833 15.2167 18V25.5C15.2167 25.9583 15.5917 26.3333 16.05 26.3333H19.9417C20.4 26.3333 20.775 25.9583 20.775 25.5V18C20.775 17.0833 20.0333 16.3333 19.1083 16.3333Z" fill="white"/>
<path d="M24.6667 22.1667H22.4417C21.9833 22.1667 21.6083 22.5417 21.6083 23V25.5C21.6083 25.9583 21.9833 26.3333 22.4417 26.3333H25.5C25.9583 26.3333 26.3333 25.9583 26.3333 25.5V23.8333C26.3333 22.9167 25.5833 22.1667 24.6667 22.1667Z" fill="white"/>
<path d="M20.5083 12.0417C20.7667 11.7833 20.8667 11.475 20.7833 11.2083C20.7 10.9417 20.4417 10.75 20.075 10.6917L19.275 10.5583C19.2417 10.5583 19.1667 10.5 19.15 10.4667L18.7083 9.58334C18.375 8.90834 17.6167 8.90834 17.2833 9.58334L16.8417 10.4667C16.8333 10.5 16.7583 10.5583 16.725 10.5583L15.925 10.6917C15.5583 10.75 15.3083 10.9417 15.2167 11.2083C15.1333 11.475 15.2333 11.7833 15.4917 12.0417L16.1083 12.6667C16.1417 12.6917 16.1667 12.7917 16.1583 12.825L15.9833 13.5917C15.85 14.1667 16.0667 14.425 16.2083 14.525C16.35 14.625 16.6583 14.7583 17.1667 14.4583L17.9167 14.0167C17.95 13.9917 18.0583 13.9917 18.0917 14.0167L18.8333 14.4583C19.0667 14.6 19.2583 14.6417 19.4083 14.6417C19.5833 14.6417 19.7083 14.575 19.7833 14.525C19.925 14.425 20.1417 14.1667 20.0083 13.5917L19.8333 12.825C19.825 12.7833 19.85 12.6917 19.8833 12.6667L20.5083 12.0417Z" fill="white"/>
</svg>
