<svg width="36" height="36" viewBox="0 0 36 36" fill="none" xmlns="http://www.w3.org/2000/svg">
<rect width="36" height="36" rx="10" fill="#F4F7F9"/>
<path d="M25.55 17.85L25.4167 17.6667C25.1833 17.3833 24.9083 17.1583 24.5917 16.9917C24.1667 16.75 23.6833 16.625 23.1833 16.625H12.8083C12.3083 16.625 11.8333 16.75 11.4 16.9917C11.075 17.1667 10.7833 17.4083 10.5417 17.7083C10.0667 18.3167 9.84166 19.0667 9.91666 19.8167L10.225 23.7083C10.3333 24.8833 10.475 26.3333 13.1167 26.3333H22.8833C25.525 26.3333 25.6583 24.8833 25.775 23.7L26.0833 19.825C26.1583 19.125 25.975 18.425 25.55 17.85ZM19.9917 22.45H16C15.675 22.45 15.4167 22.1833 15.4167 21.8667C15.4167 21.55 15.675 21.2833 16 21.2833H19.9917C20.3167 21.2833 20.575 21.55 20.575 21.8667C20.575 22.1917 20.3167 22.45 19.9917 22.45Z" fill="#6E7892"/>
<path d="M25.1186 15.0193C25.164 15.4013 24.7469 15.6602 24.378 15.5513C23.9987 15.4393 23.6022 15.3833 23.1917 15.3833H12.8083C12.3927 15.3833 11.9827 15.4436 11.5954 15.5591C11.2311 15.6677 10.8167 15.4184 10.8167 15.0382V13.55C10.8167 10.575 11.725 9.66667 14.7 9.66667H15.6833C16.875 9.66667 17.25 10.05 17.7333 10.675L18.7333 12.0083C18.9417 12.2917 18.95 12.3083 19.3167 12.3083H21.3C23.8458 12.3083 24.8756 12.9748 25.1186 15.0193Z" fill="#6E7892"/>
</svg>
