<svg width="20" height="20" viewBox="0 0 20 20" fill="none" xmlns="http://www.w3.org/2000/svg">
<path d="M17.55 9.85L17.4167 9.66667C17.1833 9.38333 16.9083 9.15833 16.5917 8.99167C16.1667 8.75 15.6833 8.625 15.1833 8.625H4.80832C4.30832 8.625 3.83332 8.75 3.39999 8.99167C3.07499 9.16667 2.78332 9.40833 2.54166 9.70833C2.06666 10.3167 1.84166 11.0667 1.91666 11.8167L2.22499 15.7083C2.33332 16.8833 2.47499 18.3333 5.11666 18.3333H14.8833C17.525 18.3333 17.6583 16.8833 17.775 15.7L18.0833 11.825C18.1583 11.125 17.975 10.425 17.55 9.85ZM11.9917 14.45H7.99999C7.67499 14.45 7.41666 14.1833 7.41666 13.8667C7.41666 13.55 7.67499 13.2833 7.99999 13.2833H11.9917C12.3167 13.2833 12.575 13.55 12.575 13.8667C12.575 14.1917 12.3167 14.45 11.9917 14.45Z" fill="#6E7892"/>
<path d="M17.1186 7.01932C17.164 7.40132 16.7469 7.66017 16.378 7.55126C15.9987 7.43931 15.6022 7.38333 15.1917 7.38333H4.80835C4.39268 7.38333 3.98275 7.44359 3.59539 7.55907C3.23106 7.66769 2.81668 7.4184 2.81668 7.03822V5.55C2.81668 2.575 3.72501 1.66666 6.70001 1.66666H7.68335C8.87501 1.66666 9.25001 2.05 9.73335 2.675L10.7333 4.00833C10.9417 4.29166 10.95 4.30833 11.3167 4.30833H13.3C15.8457 4.30833 16.8756 4.97478 17.1186 7.01932Z" fill="#6E7892"/>
</svg>
