<svg width="36" height="36" viewBox="0 0 36 36" fill="none" xmlns="http://www.w3.org/2000/svg">
<rect width="36" height="36" rx="10" fill="#5254F1" fill-opacity="0.05"/>
<path d="M12 13.2188V20.6719C12 24.1613 14.9158 27 18.5 27C22.0842 27 25 24.1613 25 20.6719V13.5703C25 11.0502 22.8941 9 20.3056 9C17.717 9 15.6111 11.0502 15.6111 13.5703V20.6719C15.6111 22.2227 16.907 23.4844 18.5 23.4844C20.093 23.4844 21.3889 22.2227 21.3889 20.6719V13.2188C21.3889 12.8304 21.0656 12.5156 20.6667 12.5156C20.2678 12.5156 19.9444 12.8304 19.9444 13.2188V20.6719C19.9444 21.4472 19.2964 22.0781 18.5 22.0781C17.7036 22.0781 17.0556 21.4472 17.0556 20.6719V13.5703C17.0556 11.8257 18.5135 10.4062 20.3056 10.4062C22.0976 10.4062 23.5556 11.8257 23.5556 13.5703V20.6719C23.5556 23.3858 21.2876 25.5938 18.5 25.5938C15.7124 25.5938 13.4444 23.3858 13.4444 20.6719V13.2188C13.4444 12.8304 13.1211 12.5156 12.7222 12.5156C12.3233 12.5156 12 12.8304 12 13.2188Z" fill="#5762F7" stroke="#5762F7" stroke-width="0.4"/>
</svg>
